<svg xmlns="http://www.w3.org/2000/svg" xmlns:xlink="http://www.w3.org/1999/xlink" viewBox="0 0 175.67 116.79"><defs><style>.cls-1,.cls-2{fill:none;}.cls-1{clip-rule:evenodd;}.cls-3{clip-path:url(#clip-path);}.cls-4{clip-path:url(#clip-path-2);}.cls-5{fill:#d4f5ff;}.cls-6{clip-path:url(#clip-path-3);}.cls-7{fill:#9ce5ff;}.cls-8{clip-path:url(#clip-path-5);}.cls-9{clip-path:url(#clip-path-7);}.cls-10{clip-path:url(#clip-path-9);}.cls-11{isolation:isolate;}.cls-12{clip-path:url(#clip-path-11);}.cls-13{clip-path:url(#clip-path-12);}.cls-14{clip-path:url(#clip-path-14);}.cls-15{clip-path:url(#clip-path-16);}.cls-16{clip-path:url(#clip-path-18);}.cls-17{clip-path:url(#clip-path-20);}.cls-18{clip-path:url(#clip-path-22);}.cls-19{clip-path:url(#clip-path-24);}.cls-20{clip-path:url(#clip-path-26);}.cls-21{clip-path:url(#clip-path-28);}.cls-22{clip-path:url(#clip-path-30);}.cls-23{clip-path:url(#clip-path-32);}.cls-24{clip-path:url(#clip-path-34);}.cls-25{clip-path:url(#clip-path-36);}.cls-26{clip-path:url(#clip-path-38);}.cls-27{clip-path:url(#clip-path-40);}.cls-28{clip-path:url(#clip-path-42);}.cls-29{clip-path:url(#clip-path-43);}.cls-30{clip-path:url(#clip-path-45);}.cls-31{clip-path:url(#clip-path-47);}.cls-32{clip-path:url(#clip-path-49);}.cls-33{clip-path:url(#clip-path-51);}</style><clipPath id="clip-path"><polygon class="cls-1" points="175.67 0 14.78 11.15 103.98 74.87 175.67 0"/></clipPath><clipPath id="clip-path-2"><rect class="cls-2" width="176" height="117"/></clipPath><clipPath id="clip-path-3"><polygon class="cls-1" points="48.23 74.87 44.09 32.09 163.61 0.84 57.57 41.72 81.68 58.94 48.23 74.87"/></clipPath><clipPath id="clip-path-5"><path class="cls-1" d="M132.14,96.17l1.5,1,.5.37.3.23.63.47a10.77,10.77,0,0,1,.88.71l.66.59a.75.75,0,0,0,.52.18l.15,0a.75.75,0,0,0,.34-.21l2.5-2.82a.73.73,0,0,0,.18-.51.74.74,0,0,0-.24-.49l-.73-.65c-.31-.29-.71-.58-1.12-.9-.22-.15-.43-.31-.66-.49l-.32-.24c-.21-.17-.43-.33-.65-.49l-1.69-1.08a.69.69,0,0,0-.54-.1h0a.71.71,0,0,0-.41.31l-2,3.2a.71.71,0,0,0,.22,1"/></clipPath><clipPath id="clip-path-7"><path class="cls-1" d="M139.7,102.64l.71.87c.31.38.69.84,1.05,1.34.82,1.12,1.56,2.32,1.56,2.33a.71.71,0,0,0,.45.32.63.63,0,0,0,.36,0,.71.71,0,0,0,.18-.08l3.19-2a.71.71,0,0,0,.23-1c0-.06-.85-1.38-1.77-2.64-.41-.59-.87-1.14-1.24-1.59l-.76-.92a.7.7,0,0,0-.48-.26.74.74,0,0,0-.26,0,.72.72,0,0,0-.27.15l-2.86,2.44a.72.72,0,0,0-.09,1"/></clipPath><clipPath id="clip-path-9"><rect class="cls-2" x="145.03" y="108.52" width="6.77" height="8.27"/></clipPath><clipPath id="clip-path-11"><rect class="cls-2" x="145" y="108" width="7" height="9"/></clipPath><clipPath id="clip-path-12"><path class="cls-1" d="M145.09,111l.33.79c.26.65.47,1.24.64,1.78a18.66,18.66,0,0,1,.6,2.57.71.71,0,0,0,.81.6l3.72-.58.09,0a.71.71,0,0,0,.51-.79,24.45,24.45,0,0,0-.78-3.33c-.21-.66-.47-1.39-.78-2.18l-.39-.92a.74.74,0,0,0-.39-.39.73.73,0,0,0-.46,0l-.09,0-3.45,1.53a.72.72,0,0,0-.36.93"/></clipPath><clipPath id="clip-path-14"><path class="cls-1" d="M102.73,91.41l1.14-.18c.48-.08,1.08-.17,1.68-.22l.79-.09c.43,0,.84-.09,1.16-.11l.9,0,.16,0a.69.69,0,0,0,.33-.21.68.68,0,0,0,.18-.51l-.22-3.76a.72.72,0,0,0-.75-.67l-1,.06-1.36.13-.76.08c-.69.06-1.36.17-1.9.25l-1.21.19-.08,0a.7.7,0,0,0-.39.26.74.74,0,0,0-.12.54l.63,3.71a.72.72,0,0,0,.81.59"/></clipPath><clipPath id="clip-path-16"><path class="cls-1" d="M112.9,90.69l.89,0,.51,0c.43,0,.93,0,1.43.12l1.93.21.88.15a.69.69,0,0,0,.32,0,.62.62,0,0,0,.22-.1.77.77,0,0,0,.29-.47l.6-3.71a.72.72,0,0,0-.59-.82l-1-.17-2.12-.23c-.59-.08-1.17-.11-1.67-.14l-.52,0-1,0a.58.58,0,0,0-.23,0,.75.75,0,0,0-.29.16.73.73,0,0,0-.23.5L112.23,90a.7.7,0,0,0,.67.73"/></clipPath><clipPath id="clip-path-18"><path class="cls-1" d="M122.88,92.17l.85.26.42.13a13.54,13.54,0,0,1,1.41.46l.73.28c.4.15.78.29,1.06.41l.81.37a.72.72,0,0,0,.5,0l.05,0a.69.69,0,0,0,.4-.37l1.54-3.43a.71.71,0,0,0-.36-.94l-.91-.42-1.31-.5-.73-.27c-.58-.24-1.19-.42-1.68-.57l-1.37-.41a.68.68,0,0,0-.4,0,.47.47,0,0,0-.15.06.7.7,0,0,0-.34.43l-1,3.63a.71.71,0,0,0,.48.87"/></clipPath><clipPath id="clip-path-20"><path class="cls-1" d="M73.16,102l.1,0,5.38-2.45a.71.71,0,0,0,.36-.94L77.46,95.1a.73.73,0,0,0-.4-.37.67.67,0,0,0-.44,0l-.1,0L71.1,97.21a.71.71,0,0,0-.38.4.75.75,0,0,0,0,.55l1.57,3.42a.71.71,0,0,0,.84.38"/></clipPath><clipPath id="clip-path-22"><path class="cls-1" d="M82.83,97.65l.08,0,2.7-1.11,1.88-.74.83-.31a.75.75,0,0,0,.41-.37.73.73,0,0,0,0-.56L87.43,91a.71.71,0,0,0-.86-.43h0l-.91.34-1.94.76L80.9,92.84a.68.68,0,0,0-.39.39.72.72,0,0,0,0,.54L82,97.24a.7.7,0,0,0,.85.41"/></clipPath><clipPath id="clip-path-24"><path class="cls-1" d="M92.63,93.94h0s1.38-.43,2.76-.84l1.93-.53.85-.21h0a.7.7,0,0,0,.41-.3.76.76,0,0,0,.09-.55l-.9-3.66a.7.7,0,0,0-.84-.52s-.39.08-1,.23l-2,.55.14.7L94,88.1h0c-1.47.44-2.93.9-2.93.9a.65.65,0,0,0-.41.35.7.7,0,0,0,0,.55l1.17,3.58a.71.71,0,0,0,.87.46"/></clipPath><clipPath id="clip-path-26"><path class="cls-1" d="M43,113.32l.92-.2c.37-.07.81-.18,1.29-.3l.75-.19c.59-.14,1.17-.3,1.66-.44l1.28-.37a.7.7,0,0,0,.43-.34.72.72,0,0,0,.06-.54l-1.07-3.61a.71.71,0,0,0-.88-.48l-1.27.36c-.46.13-1,.27-1.47.39l-.76.19-1.13.27-.87.18h-.05a.7.7,0,0,0-.5.83l.77,3.69a.77.77,0,0,0,.3.45.79.79,0,0,0,.54.1"/></clipPath><clipPath id="clip-path-28"><path class="cls-1" d="M53.45,110.35l.94-.33,1.94-.72c1.4-.54,2.8-1.1,2.8-1.1a.73.73,0,0,0,.39-.93l-1.42-3.49a.7.7,0,0,0-.85-.41l-.08,0s-1.34.55-2.69,1.06l-1.85.69-.85.3a.7.7,0,0,0-.41.36.75.75,0,0,0,0,.55l1.25,3.55a.7.7,0,0,0,.86.45"/></clipPath><clipPath id="clip-path-30"><path class="cls-1" d="M62.54,106a.7.7,0,0,0,.84.4l.1,0,2.73-1.21,2.7-1.23a.73.73,0,0,0,.38-.39.8.8,0,0,0,0-.55L67.7,99.56a.7.7,0,0,0-.84-.39l-.1,0-2.68,1.22L61.4,101.6a.72.72,0,0,0-.37.94Z"/></clipPath><clipPath id="clip-path-32"><path class="cls-1" d="M19.29,107.15a.73.73,0,0,0-.38-.46l-.72-.35c-.43-.21-1-.51-1.54-.81-1.1-.61-2.18-1.29-2.19-1.3a.72.72,0,0,0-.57-.08.75.75,0,0,0-.25.13l-3.15,2.55a.7.7,0,0,0,.06,1.15s1.35.88,2.74,1.67c.65.35,1.38.76,1.94,1l.89.44a.7.7,0,0,0,.51,0,.68.68,0,0,0,.39-.28l2.16-3.16a.71.71,0,0,0,.11-.58"/></clipPath><clipPath id="clip-path-34"><path class="cls-1" d="M27.58,109.24l-.89-.08a5.48,5.48,0,0,1-.76-.1l-.18,0c-.23,0-.46-.07-.69-.13l-.37-.09c-.18,0-.37-.08-.53-.13l-.83-.24a4.51,4.51,0,0,1-.51-.16l-.2-.07a.7.7,0,0,0-.43,0,.73.73,0,0,0-.48.43l-1.3,3.54a.7.7,0,0,0,0,.55.73.73,0,0,0,.41.36l.25.09c.18.06.43.15.73.23l1,.29.78.19.36.08a8.72,8.72,0,0,0,1,.19l.19,0c.38.06.75.12,1.05.14l.95.08a1.09,1.09,0,0,0,.26,0,.72.72,0,0,0,.51-.62l.31-3.76a.68.68,0,0,0-.16-.51.67.67,0,0,0-.49-.25"/></clipPath><clipPath id="clip-path-36"><path class="cls-1" d="M32,114.58l.95,0,1,0,1.5-.11c.64,0,1.25-.1,1.72-.17l.95-.11.11,0a.7.7,0,0,0,.36-.25.72.72,0,0,0,.15-.53l-.48-3.73a.72.72,0,0,0-.79-.62l-.9.11c-.4.06-.93.1-1.48.14l-1.4.1-1.79,0a.47.47,0,0,0-.17,0,.7.7,0,0,0-.52.69l.05,3.77a.68.68,0,0,0,.22.5.74.74,0,0,0,.51.2"/></clipPath><clipPath id="clip-path-38"><path class="cls-1" d="M3.92,85.74l4.22,1.49a.7.7,0,0,0,.43,0A.61.61,0,0,0,8.93,87l.12-.15,1-1a4.5,4.5,0,0,1,.38-.35l.27-.22.26-.23.43-.35,1.15-.85.1-.07a.71.71,0,0,0,.36-.59.69.69,0,0,0-.32-.62L9.15,80.3a.72.72,0,0,0-.59-.08l-.16.07a1.73,1.73,0,0,0-.29.2L6.74,81.54c-.19.16-.39.33-.58.51l-.32.28-.29.26a7.41,7.41,0,0,0-.58.54L3.8,84.37l0,0-.16.21a.7.7,0,0,0-.12.64.69.69,0,0,0,.44.47"/></clipPath><clipPath id="clip-path-40"><rect class="cls-2" y="88.53" width="6.87" height="7.52"/></clipPath><clipPath id="clip-path-42"><rect class="cls-2" y="88" width="7" height="9"/></clipPath><clipPath id="clip-path-43"><path class="cls-1" d="M.92,96.05l4.67-.31a.4.4,0,0,0,.15,0,.68.68,0,0,0,.36-.24.67.67,0,0,0,.14-.56l0-.24a4.87,4.87,0,0,1,0-.52,7.7,7.7,0,0,1,0-1.58A8.85,8.85,0,0,1,6.55,91a5.78,5.78,0,0,1,.25-.65.69.69,0,0,0,0-.64.71.71,0,0,0-.52-.38l-4.58-.74a.75.75,0,0,0-.3,0,.71.71,0,0,0-.45.38,7.67,7.67,0,0,0-.36,1,12.36,12.36,0,0,0-.5,2.25,12,12,0,0,0,0,2.25c0,.32,0,.59.08.77l.05.27a.7.7,0,0,0,.75.59"/></clipPath><clipPath id="clip-path-45"><path class="cls-1" d="M11.4,102.5a.73.73,0,0,0-.27-.63l-.15-.12-.46-.39c-.37-.3-.85-.75-1.25-1.13s-.85-.9-1.15-1.29a3.43,3.43,0,0,1-.23-.32l-.2-.28a.72.72,0,0,0-.76-.28L2.47,99.17A.74.74,0,0,0,2,99.6a.71.71,0,0,0,.08.65l.23.35c.09.14.21.31.33.47a21.12,21.12,0,0,0,1.45,1.71l.81.81c.18.18.36.34.53.49l.78.7.2.17a.73.73,0,0,0,.65.13l.13,0,3.83-2a.71.71,0,0,0,.38-.56"/></clipPath><clipPath id="clip-path-47"><path class="cls-1" d="M33.79,72.67a.72.72,0,0,0,.82.34l.15-.06c.05,0,1.4-.76,2.75-1.67.81-.53,1.53-1.1,1.9-1.4s.84-.73.84-.73a.73.73,0,0,0,.23-.5.69.69,0,0,0-.19-.51l-2.57-2.75a.73.73,0,0,0-.72-.2.81.81,0,0,0-.27.15l-.61.54c-.35.28-.9.7-1.49,1.09-1.12.75-2.37,1.43-2.38,1.44a.72.72,0,0,0-.35.43.69.69,0,0,0,.07.54Z"/></clipPath><clipPath id="clip-path-49"><path class="cls-1" d="M24,77.42a.73.73,0,0,0,.39.38.8.8,0,0,0,.46,0l.09,0,.86-.37,1.91-.87c.5-.23,1-.48,1.44-.7l.51-.25.82-.42a.73.73,0,0,0,.31-1l-1.72-3.35a.71.71,0,0,0-.83-.36l-.13,0-.81.42-.51.25-1.27.62-1.81.82-.84.37a.71.71,0,0,0-.37.93Z"/></clipPath><clipPath id="clip-path-51"><path class="cls-1" d="M15.35,81.59a.71.71,0,0,0,.7.19l.14,0,.69-.36,1.59-.77c1.17-.53,2.34-1,2.34-1a.68.68,0,0,0,.39-.41.71.71,0,0,0,0-.57l-1.73-3.35a.71.71,0,0,0-.83-.36l-.09,0-.92.4-2,.92-2,1-.87.46a.74.74,0,0,0-.37.52.73.73,0,0,0,.2.61Z"/></clipPath></defs><title>Tokenbooks_Paper Plane</title><g id="Layer_2" data-name="Layer 2"><g class="cls-3"><g class="cls-4"><rect class="cls-5" x="9.78" y="-5" width="170.89" height="84.87"/></g></g><g class="cls-6"><g class="cls-4"><rect class="cls-7" x="39.09" y="-4.16" width="129.53" height="84.03"/></g></g><g class="cls-8"><g class="cls-4"><rect class="cls-7" x="126.81" y="86.66" width="18.48" height="18.02"/></g></g><g class="cls-9"><g class="cls-4"><rect class="cls-7" x="134.54" y="94.04" width="18" height="18.48"/></g></g><g class="cls-10"><g class="cls-4"><g class="cls-11"><g class="cls-12"><g class="cls-13"><g class="cls-12"><rect class="cls-7" x="140.03" y="103.52" width="16.77" height="18.27"/></g></g></g></g></g></g><g class="cls-14"><g class="cls-4"><rect class="cls-7" x="96.28" y="80.58" width="17.79" height="15.83"/></g></g><g class="cls-15"><g class="cls-4"><rect class="cls-7" x="107.23" y="80.51" width="17.75" height="15.74"/></g></g><g class="cls-16"><g class="cls-4"><rect class="cls-7" x="117.37" y="82.15" width="18.34" height="16.99"/></g></g><g class="cls-17"><g class="cls-4"><rect class="cls-7" x="65.68" y="89.68" width="18.38" height="17.31"/></g></g><g class="cls-18"><g class="cls-4"><rect class="cls-7" x="75.46" y="85.55" width="18.34" height="17.13"/></g></g><g class="cls-19"><g class="cls-4"><rect class="cls-7" x="85.56" y="82.29" width="18.19" height="16.68"/></g></g><g class="cls-20"><g class="cls-4"><rect class="cls-7" x="36.39" y="101.82" width="18.04" height="16.51"/></g></g><g class="cls-21"><g class="cls-4"><rect class="cls-7" x="46.3" y="98.34" width="18.27" height="17.04"/></g></g><g class="cls-22"><g class="cls-4"><rect class="cls-7" x="55.97" y="94.14" width="18.36" height="17.28"/></g></g><g class="cls-23"><g class="cls-4"><rect class="cls-7" x="5.22" y="99.12" width="19.09" height="17.08"/></g></g><g class="cls-24"><g class="cls-4"><rect class="cls-7" x="15.37" y="103.18" width="17.87" height="16.23"/></g></g><g class="cls-25"><g class="cls-4"><rect class="cls-7" x="26.24" y="103.99" width="17.53" height="15.59"/></g></g><g class="cls-26"><g class="cls-4"><rect class="cls-7" x="-1.55" y="75.19" width="19.53" height="17.08"/></g></g><g class="cls-27"><g class="cls-4"><g class="cls-11"><g class="cls-28"><g class="cls-29"><g class="cls-28"><rect class="cls-7" x="-5" y="83.53" width="16.87" height="17.52"/></g></g></g></g></g></g><g class="cls-30"><g class="cls-4"><rect class="cls-7" x="-3.04" y="93.04" width="19.45" height="17.07"/></g></g><g class="cls-31"><g class="cls-4"><rect class="cls-7" x="26.88" y="60.17" width="18.61" height="17.87"/></g></g><g class="cls-32"><g class="cls-4"><rect class="cls-7" x="17.46" y="65.47" width="18.42" height="17.37"/></g></g><g class="cls-33"><g class="cls-4"><rect class="cls-7" x="7.37" y="69.84" width="18.87" height="16.96"/></g></g></g></svg>